<svg width="390" height="100" viewBox="0 0 390 100" fill="none" xmlns="http://www.w3.org/2000/svg">
<mask id="mask0_2_3" style="mask-type:luminance" maskUnits="userSpaceOnUse" x="0" y="0" width="390" height="100">
<path d="M390 0H0V100H390V0Z" fill="white"/>
</mask>
<g mask="url(#mask0_2_3)">
<path d="M390 0H0V100H390V0Z" fill="#9CDCD9"/>
<path d="M109.998 23.2876L98.6907 13.1069C92.3589 7.4057 91.8634 -2.04881 97.5646 -8.38063L108.871 1.80007C115.203 7.50127 115.699 16.9558 109.998 23.2876Z" stroke="#0E5C2A" stroke-width="0.91289"/>
<path d="M324.481 51.9524L314.453 57.5109C308.838 60.6236 301.98 58.6571 298.867 53.0416L308.895 47.4831C314.51 44.3704 321.368 46.3369 324.481 51.9524Z" stroke="#0E5C2A" stroke-width="0.687914"/>
<path d="M191.457 97.5374L178.142 95.1895C170.685 93.8747 165.859 86.9828 167.174 79.5262L180.489 81.8741C187.946 83.1889 192.772 90.0807 191.457 97.5374Z" stroke="#0E5C2A" stroke-width="0.81125"/>
<path d="M117.212 87.7197L105.406 78.4962C98.7952 73.331 97.6591 64.0782 102.824 57.4671L114.63 66.6906C121.241 71.8558 122.377 81.1086 117.212 87.7197Z" stroke="#0E5C2A" stroke-width="0.898891"/>
<path d="M385.149 -4.3501L375.718 1.77447C370.437 5.20424 363.592 3.7494 360.163 -1.53197L369.594 -7.65654C374.875 -11.0863 381.719 -9.63147 385.149 -4.3501Z" stroke="#0E5C2A" stroke-width="0.674712"/>
<path d="M39.0972 52.6777L31.4533 38.3016C27.1727 30.251 30.1348 20.5622 38.1855 16.2816L45.8294 30.6577C50.1099 38.7083 47.1478 48.3971 39.0972 52.6777Z" stroke="#0E5C2A" stroke-width="0.976916"/>
<path d="M56.2831 130.687L47.76 117.047C42.9871 109.409 45.2385 99.6574 52.8767 94.8845L61.3998 108.524C66.1727 116.162 63.9213 125.914 56.2831 130.687Z" stroke="#0E5C2A" stroke-width="0.965019"/>
<path d="M184.593 27.3657L171.298 23.8031C163.852 21.8081 159.569 14.3905 161.564 6.94487L174.86 10.5074C182.306 12.5025 186.588 19.9201 184.593 27.3657Z" stroke="#0E5C2A" stroke-width="0.825884"/>
<path d="M-8.82251 102.282L-13.2179 85.8784C-15.6793 76.6923 -10.3956 67.5407 -1.20948 65.0793L3.1859 81.483C5.64732 90.6692 0.363616 99.8208 -8.82251 102.282Z" stroke="#0E5C2A" stroke-width="1.01895"/>
<path d="M256.416 35.4253L244.252 37.7898C237.44 39.1139 231.047 34.802 229.723 27.9901L241.887 25.6256C248.699 24.3015 255.092 28.6134 256.416 35.4253Z" stroke="#0E5C2A" stroke-width="0.743509"/>
<path d="M386.535 84.3508L377.104 90.4754C371.823 93.9052 364.978 92.4503 361.549 87.169L370.98 81.0444C376.261 77.6146 383.105 79.0695 386.535 84.3508Z" stroke="#0E5C2A" stroke-width="0.674712"/>
<path d="M263.359 109.976L251.577 113.133C244.98 114.901 238.407 111.106 236.639 104.508L248.421 101.352C255.018 99.5838 261.591 103.379 263.359 109.976Z" stroke="#0E5C2A" stroke-width="0.731811"/>
</g>
</svg>
