<svg width="24" height="24" viewBox="0 0 24 24" fill="none" xmlns="http://www.w3.org/2000/svg">
<path d="M7.68 1.44C4.23959 1.44 1.44 4.23959 1.44 7.68V16.32C1.44 19.7604 4.23959 22.56 7.68 22.56H16.32C19.7604 22.56 22.56 19.7604 22.56 16.32V7.68C22.56 4.23959 19.7604 1.44 16.32 1.44H7.68ZM7.68 2.4H16.32C19.2415 2.4 21.6 4.75849 21.6 7.68V16.32C21.6 19.2415 19.2415 21.6 16.32 21.6H7.68C4.75849 21.6 2.4 19.2415 2.4 16.32V7.68C2.4 4.75849 4.75849 2.4 7.68 2.4ZM17.76 5.28C17.5054 5.28 17.2612 5.38115 17.0812 5.56118C16.9011 5.74122 16.8 5.98539 16.8 6.24C16.8 6.49461 16.9011 6.73879 17.0812 6.91883C17.2612 7.09886 17.5054 7.2 17.76 7.2C18.0146 7.2 18.2588 7.09886 18.4388 6.91883C18.6189 6.73879 18.72 6.49461 18.72 6.24C18.72 5.98539 18.6189 5.74122 18.4388 5.56118C18.2588 5.38115 18.0146 5.28 17.76 5.28ZM12 6.72C9.08962 6.72 6.72 9.08962 6.72 12C6.72 14.9104 9.08962 17.28 12 17.28C14.9104 17.28 17.28 14.9104 17.28 12C17.28 9.08962 14.9104 6.72 12 6.72ZM12 7.68C14.3916 7.68 16.32 9.60845 16.32 12C16.32 14.3916 14.3916 16.32 12 16.32C9.60845 16.32 7.68 14.3916 7.68 12C7.68 9.60845 9.60845 7.68 12 7.68Z" fill="#6F6D68"/>
</svg>
